<?xml version="1.0" encoding="utf-8"?>
<!DOCTYPE svg PUBLIC "-//W3C//DTD SVG 1.1//EN" "http://www.w3.org/Graphics/SVG/1.1/DTD/svg11.dtd">
<svg xmlns="http://www.w3.org/2000/svg" xmlns:xlink="http://www.w3.org/1999/xlink" version="1.1" baseProfile="full" width="442.5" height="181.5" viewBox="0 0 442.50 181.50" enable-background="new 0 0 442.50 181.50" xml:space="preserve">
	<rect x="0" y="-3.05176e-005" fill="#549AFC" fill-opacity="1" stroke-width="0.2" stroke-linejoin="round" width="442.5" height="181.5"/>
	<g>
		<path fill="#FFFFFF" fill-opacity="1" stroke-linejoin="round" d="M 275.239,47.3002L 272.3,58.5002L 269.524,58.5002L 267.679,51.3152C 267.581,50.9402 267.521,50.521 267.5,50.0576L 267.469,50.0576C 267.423,50.5677 267.355,50.9868 267.267,51.3152L 265.375,58.5002L 262.482,58.5002L 259.56,47.3002L 262.297,47.3002L 263.864,54.7602C 263.931,55.0768 263.979,55.5035 264.01,56.0402L 264.057,56.0402C 264.077,55.6385 264.152,55.201 264.282,54.7277L 266.3,47.3002L 268.982,47.3002L 270.804,54.8227C 270.871,55.0977 270.93,55.4985 270.982,56.0252L 271.012,56.0252C 271.034,55.6135 271.089,55.1968 271.177,54.7752L 272.712,47.3002L 275.239,47.3002 Z "/>
		<path fill="#FFFFFF" fill-opacity="1" stroke-linejoin="round" d="M 284.04,58.5002L 281.639,58.5002L 281.639,54.0002C 281.639,52.8402 281.217,52.2602 280.372,52.2602C 279.938,52.2602 279.588,52.4226 279.321,52.7477C 279.053,53.0727 278.919,53.4851 278.919,53.9851L 278.919,58.5002L 276.519,58.5002L 276.519,46.6602L 278.919,46.6602L 278.919,51.7527L 278.949,51.7527C 279.543,50.811 280.348,50.3402 281.367,50.3402C 283.148,50.3402 284.04,51.4294 284.04,53.6077L 284.04,58.5002 Z "/>
		<path fill="#FFFFFF" fill-opacity="1" stroke-linejoin="round" d="M 292.84,58.5002L 290.439,58.5002L 290.439,57.3076L 290.407,57.3076C 289.865,58.2093 289.064,58.6602 288.002,58.6602C 287.219,58.6602 286.603,58.4414 286.153,58.0039C 285.704,57.5664 285.479,56.9827 285.479,56.2527C 285.479,54.711 286.407,53.821 288.262,53.5827L 290.455,53.2952C 290.455,52.4985 289.977,52.1002 289.022,52.1002C 288.06,52.1002 287.146,52.3669 286.28,52.9002L 286.28,51.0202C 286.628,50.8402 287.105,50.6819 287.711,50.5452C 288.317,50.4085 288.868,50.3402 289.365,50.3402C 291.681,50.3402 292.84,51.4735 292.84,53.7401L 292.84,58.5002 Z M 290.455,55.2577L 290.455,54.7351L 288.96,54.9176C 288.133,55.0177 287.719,55.3685 287.719,55.9702C 287.719,56.2419 287.82,56.4648 288.021,56.6389C 288.222,56.8131 288.494,56.9002 288.837,56.9002C 289.315,56.9002 289.705,56.7451 290.005,56.4352C 290.304,56.1252 290.455,55.7327 290.455,55.2577 Z "/>
		<path fill="#FFFFFF" fill-opacity="1" stroke-linejoin="round" d="M 299.399,58.3402C 299.043,58.5535 298.506,58.6602 297.79,58.6602C 296.09,58.6602 295.239,57.7527 295.239,55.9377L 295.239,52.2602L 293.959,52.2602L 293.959,50.5002L 295.239,50.5002L 295.239,48.7952L 297.639,48.1002L 297.639,50.5002L 299.399,50.5002L 299.399,52.2602L 297.639,52.2602L 297.639,55.4901C 297.639,56.3235 297.964,56.7401 298.612,56.7401C 298.867,56.7401 299.129,56.6869 299.399,56.5802L 299.399,58.3402 Z "/>
		<path fill="#FFFFFF" fill-opacity="1" stroke-linejoin="round" d="M 317,50.5002L 314.7,58.5002L 312.109,58.5002L 310.932,53.8127C 310.854,53.501 310.81,53.1602 310.8,52.7902L 310.752,52.7902C 310.715,53.1968 310.663,53.5277 310.594,53.7827L 309.332,58.5002L 306.774,58.5002L 304.52,50.5002L 307.032,50.5002L 308.132,55.7202C 308.184,55.9652 308.222,56.2619 308.247,56.6101L 308.295,56.6101C 308.321,56.2451 308.368,55.9377 308.435,55.6877L 309.807,50.5002L 312.154,50.5002L 313.387,55.7177C 313.419,55.8493 313.456,56.1518 313.497,56.6252L 313.552,56.6252C 313.579,56.3235 313.62,56.021 313.677,55.7177L 314.715,50.5002L 317,50.5002 Z "/>
		<path fill="#FFFFFF" fill-opacity="1" stroke-linejoin="round" d="M 319.479,49.2202C 319.081,49.2202 318.755,49.0956 318.501,48.8464C 318.247,48.5973 318.12,48.291 318.12,47.9276C 318.12,47.556 318.247,47.2519 318.501,47.0152C 318.755,46.7785 319.081,46.6602 319.479,46.6602C 319.883,46.6602 320.21,46.7785 320.462,47.0152C 320.714,47.2519 320.84,47.556 320.84,47.9276C 320.84,48.306 320.714,48.616 320.462,48.8577C 320.21,49.0993 319.883,49.2202 319.479,49.2202 Z M 320.679,58.5002L 318.28,58.5002L 318.28,50.5002L 320.679,50.5002L 320.679,58.5002 Z "/>
		<rect x="322.76" y="46.6602" fill="#FFFFFF" fill-opacity="1" stroke-linejoin="round" width="2.39966" height="11.84"/>
		<rect x="327.24" y="46.6602" fill="#FFFFFF" fill-opacity="1" stroke-linejoin="round" width="2.39966" height="11.84"/>
		<path fill="#FFFFFF" fill-opacity="1" stroke-linejoin="round" d="M 343.719,50.5002L 340.492,59.2002C 339.722,61.2935 338.563,62.3402 337.014,62.3402C 336.425,62.3402 335.939,62.2335 335.56,62.0202L 335.56,60.1002C 335.88,60.3135 336.227,60.4202 336.602,60.4202C 337.22,60.4202 337.651,60.1194 337.895,59.5177L 338.304,58.5202L 335.08,50.5002L 337.812,50.5002L 339.285,55.3952C 339.376,55.7002 339.448,56.0594 339.5,56.4727L 339.529,56.4727C 339.576,56.1693 339.661,55.816 339.785,55.4127L 341.272,50.5002L 343.719,50.5002 Z "/>
		<path fill="#FFFFFF" fill-opacity="1" stroke-linejoin="round" d="M 348.639,58.6602C 347.309,58.6602 346.264,58.2898 345.502,57.5489C 344.74,56.8081 344.359,55.8018 344.359,54.5302C 344.359,53.2185 344.754,52.1923 345.544,51.4514C 346.334,50.7106 347.403,50.3402 348.75,50.3402C 350.074,50.3402 351.114,50.7106 351.868,51.4514C 352.623,52.1923 353,53.1726 353,54.3927C 353,55.7093 352.611,56.7498 351.833,57.5139C 351.056,58.2781 349.991,58.6602 348.639,58.6602 Z M 348.707,52.2602C 348.14,52.2602 347.701,52.4552 347.388,52.8452C 347.076,53.2351 346.919,53.7868 346.919,54.5002C 346.919,55.9935 347.52,56.7401 348.722,56.7401C 349.867,56.7401 350.439,55.9735 350.439,54.4402C 350.439,52.9868 349.862,52.2602 348.707,52.2602 Z "/>
		<path fill="#FFFFFF" fill-opacity="1" stroke-linejoin="round" d="M 362.119,58.5002L 359.719,58.5002L 359.719,57.2152L 359.679,57.2152C 359.069,58.1785 358.253,58.6602 357.229,58.6602C 355.369,58.6602 354.439,57.5426 354.439,55.3076L 354.439,50.5002L 356.839,50.5002L 356.839,55.0627C 356.839,56.181 357.299,56.7401 358.219,56.7401C 358.674,56.7401 359.038,56.5868 359.311,56.2802C 359.583,55.9735 359.719,55.5569 359.719,55.0302L 359.719,50.5002L 362.119,50.5002L 362.119,58.5002 Z "/>
		<path fill="#FFFFFF" fill-opacity="1" stroke-linejoin="round" d="M 371.112,57.5052L 371.079,57.5052L 371.079,58.5002L 368.679,58.5002L 368.679,46.6602L 371.079,46.6602L 371.079,51.7677L 371.112,51.7677C 371.729,50.816 372.605,50.3402 373.742,50.3402C 374.785,50.3402 375.589,50.6914 376.153,51.394C 376.717,52.0964 377,53.0569 377,54.2752C 377,55.5968 376.67,56.6581 376.012,57.4589C 375.354,58.2598 374.473,58.6602 373.372,58.6602C 372.375,58.6602 371.622,58.2752 371.112,57.5052 Z M 371.042,54.2052L 371.042,55.0002C 371.042,55.5019 371.192,55.9173 371.492,56.2464C 371.792,56.5756 372.177,56.7401 372.647,56.7401C 373.215,56.7401 373.656,56.529 373.969,56.1064C 374.283,55.6839 374.439,55.0852 374.439,54.3102C 374.439,53.6668 374.296,53.1643 374.009,52.8026C 373.723,52.441 373.313,52.2602 372.779,52.2602C 372.279,52.2602 371.865,52.4397 371.536,52.7989C 371.207,53.1581 371.042,53.6269 371.042,54.2052 Z "/>
		<path fill="#FFFFFF" fill-opacity="1" stroke-linejoin="round" d="M 386.119,58.5002L 383.719,58.5002L 383.719,57.2152L 383.679,57.2152C 383.069,58.1785 382.253,58.6602 381.229,58.6602C 379.369,58.6602 378.439,57.5426 378.439,55.3076L 378.439,50.5002L 380.839,50.5002L 380.839,55.0627C 380.839,56.181 381.299,56.7401 382.219,56.7401C 382.674,56.7401 383.038,56.5868 383.311,56.2802C 383.583,55.9735 383.719,55.5569 383.719,55.0302L 383.719,50.5002L 386.119,50.5002L 386.119,58.5002 Z "/>
		<path fill="#FFFFFF" fill-opacity="1" stroke-linejoin="round" d="M 389.399,49.2202C 389.001,49.2202 388.675,49.0956 388.421,48.8464C 388.167,48.5973 388.04,48.291 388.04,47.9276C 388.04,47.556 388.167,47.2519 388.421,47.0152C 388.675,46.7785 389.001,46.6602 389.399,46.6602C 389.803,46.6602 390.13,46.7785 390.382,47.0152C 390.634,47.2519 390.76,47.556 390.76,47.9276C 390.76,48.306 390.634,48.616 390.382,48.8577C 390.13,49.0993 389.803,49.2202 389.399,49.2202 Z M 390.599,58.5002L 388.2,58.5002L 388.2,50.5002L 390.599,50.5002L 390.599,58.5002 Z "/>
		<rect x="392.679" y="46.6602" fill="#FFFFFF" fill-opacity="1" stroke-linejoin="round" width="2.39966" height="11.84"/>
		<path fill="#FFFFFF" fill-opacity="1" stroke-linejoin="round" d="M 405,58.5002L 402.439,58.5002L 402.439,57.3327L 402.409,57.3327C 401.854,58.2177 401.039,58.6602 399.964,58.6602C 398.978,58.6602 398.183,58.3102 397.582,57.6101C 396.98,56.9102 396.679,55.9326 396.679,54.6776C 396.679,53.366 397.011,52.3152 397.674,51.5252C 398.338,50.7351 399.206,50.3402 400.279,50.3402C 401.298,50.3402 402.008,50.7202 402.409,51.4801L 402.439,51.4801L 402.439,46.6602L 405,46.6602L 405,58.5002 Z M 402.487,54.6077L 402.487,54.0227C 402.487,53.516 402.341,53.0956 402.051,52.7614C 401.76,52.4273 401.382,52.2602 400.917,52.2602C 400.39,52.2602 399.979,52.4689 399.683,52.8864C 399.387,53.3039 399.239,53.8777 399.239,54.6077C 399.239,55.291 399.382,55.8173 399.668,56.1864C 399.954,56.5556 400.349,56.7401 400.854,56.7401C 401.336,56.7401 401.729,56.5452 402.032,56.1552C 402.335,55.7652 402.487,55.2494 402.487,54.6077 Z "/>
		<path fill="#FFFFFF" fill-opacity="1" stroke-linejoin="round" d="M 408.047,55.3002C 407.994,55.1618 407.952,55.006 407.923,54.8327C 407.894,54.6593 407.879,54.4951 407.879,54.3402C 407.879,54.0952 407.903,53.8719 407.952,53.6702C 408,53.4685 408.072,53.2781 408.168,53.0989C 408.264,52.9198 408.384,52.7494 408.529,52.5877C 408.674,52.426 408.843,52.2652 409.034,52.1051C 409.238,51.9335 409.416,51.7747 409.568,51.6289C 409.72,51.4831 409.851,51.3368 409.958,51.1902C 410.065,51.0435 410.146,50.8914 410.199,50.7339C 410.253,50.5764 410.279,50.4018 410.279,50.2102C 410.279,50.0452 410.25,49.8922 410.19,49.7514C 410.131,49.6106 410.047,49.4893 409.938,49.3877C 409.829,49.286 409.696,49.206 409.538,49.1477C 409.381,49.0893 409.205,49.0602 409.012,49.0602C 408.595,49.0602 408.163,49.1527 407.714,49.3377C 407.266,49.5227 406.841,49.8035 406.439,50.1802L 406.439,47.8527C 406.843,47.6143 407.282,47.436 407.758,47.3177C 408.234,47.1994 408.726,47.1402 409.234,47.1402C 409.721,47.1402 410.174,47.1935 410.592,47.3002C 411.01,47.4068 411.375,47.5752 411.687,47.8052C 411.999,48.0352 412.242,48.3285 412.417,48.6852C 412.592,49.0418 412.679,49.471 412.679,49.9727C 412.679,50.291 412.644,50.5794 412.572,50.8377C 412.5,51.096 412.396,51.3398 412.258,51.5689C 412.121,51.7981 411.95,52.0181 411.746,52.2289C 411.542,52.4397 411.306,52.6577 411.04,52.8827C 410.861,53.0343 410.704,53.1752 410.568,53.3052C 410.432,53.4352 410.32,53.5644 410.23,53.6927C 410.141,53.821 410.074,53.9568 410.028,54.1002C 409.982,54.2435 409.959,54.406 409.959,54.5877C 409.959,54.7127 409.976,54.8406 410.009,54.9714C 410.043,55.1023 410.089,55.2118 410.147,55.3002L 408.047,55.3002 Z M 409.172,58.6602C 408.755,58.6602 408.409,58.536 408.132,58.2877C 407.857,58.0293 407.719,57.7243 407.719,57.3727C 407.719,57.011 407.857,56.7085 408.132,56.4652C 408.409,56.2218 408.755,56.1002 409.172,56.1002C 409.582,56.1002 409.923,56.2218 410.194,56.4652C 410.464,56.7035 410.599,57.006 410.599,57.3727C 410.599,57.7444 410.467,58.0518 410.202,58.2952C 409.93,58.5385 409.587,58.6602 409.172,58.6602 Z "/>
		<path fill="#FFFFFF" fill-opacity="1" stroke-linejoin="round" d="M 313.719,72.1002L 313.552,72.9002L 311.492,72.9002L 311.017,75.3002L 313.239,75.3002L 313.032,76.1002L 310.867,76.1002L 310.224,79.1402L 309.239,79.1402L 309.864,76.1002L 307.957,76.1002L 307.337,79.1402L 306.359,79.1402L 306.979,76.1002L 304.919,76.1002L 305.059,75.3002L 307.147,75.3002L 307.612,72.9002L 305.399,72.9002L 305.564,72.1002L 307.774,72.1002L 308.417,68.9002L 309.399,68.9002L 308.754,72.1002L 310.667,72.1002L 311.319,68.9002L 312.279,68.9002L 311.644,72.1002L 313.719,72.1002 Z M 310.524,72.9002L 308.609,72.9002L 308.102,75.3002L 310.044,75.3002L 310.524,72.9002 Z "/>
		<path fill="#FFFFFF" fill-opacity="1" stroke-linejoin="round" d="M 315.64,80.1002L 315.64,68.9002L 318.854,68.9002C 319.833,68.9002 320.608,69.136 321.181,69.6077C 321.753,70.0794 322.04,70.6935 322.04,71.4502C 322.04,72.0818 321.868,72.631 321.526,73.0977C 321.183,73.5644 320.711,73.896 320.109,74.0927L 320.109,74.1252C 320.888,74.2135 321.511,74.4994 321.978,74.9827C 322.446,75.466 322.679,76.0952 322.679,76.8702C 322.679,77.8318 322.329,78.6106 321.627,79.2064C 320.926,79.8023 320.041,80.1002 318.972,80.1002L 315.64,80.1002 Z M 316.92,70.0202L 316.92,73.7002L 318.272,73.7002C 318.996,73.7002 319.564,73.524 319.978,73.1714C 320.393,72.8189 320.6,72.3219 320.6,71.6802C 320.6,70.5735 319.879,70.0202 318.437,70.0202L 316.92,70.0202 Z M 316.92,74.8202L 316.92,78.9802L 318.747,78.9802C 319.537,78.9802 320.15,78.7923 320.586,78.4164C 321.021,78.0406 321.24,77.5243 321.24,76.8677C 321.24,75.5027 320.315,74.8202 318.467,74.8202L 316.92,74.8202 Z "/>
		<path fill="#FFFFFF" fill-opacity="1" stroke-linejoin="round" d="M 331,76.4202L 325.399,76.4202C 325.421,77.2885 325.662,77.959 326.122,78.4314C 326.582,78.904 327.215,79.1402 328.022,79.1402C 328.928,79.1402 329.761,78.8735 330.519,78.3402L 330.519,79.5127C 329.819,80.011 328.893,80.2602 327.739,80.2602C 326.613,80.2602 325.728,79.8993 325.084,79.1777C 324.441,78.456 324.119,77.4402 324.119,76.1302C 324.119,74.8935 324.467,73.886 325.163,73.1077C 325.859,72.3294 326.723,71.9402 327.757,71.9402C 328.789,71.9402 329.587,72.2765 330.152,72.9489C 330.717,73.6214 331,74.5561 331,75.7527L 331,76.4202 Z M 329.719,75.3002C 329.714,74.5935 329.537,74.0435 329.187,73.6502C 328.837,73.2569 328.35,73.0602 327.727,73.0602C 327.125,73.0602 326.614,73.2669 326.194,73.6802C 325.774,74.0935 325.515,74.6335 325.417,75.3002L 329.719,75.3002 Z "/>
		<path fill="#FFFFFF" fill-opacity="1" stroke-linejoin="round" d="M 339.8,79.5052C 339.8,82.4618 338.412,83.9402 335.637,83.9402C 334.662,83.9402 333.81,83.7452 333.08,83.3552L 333.08,82.0202C 333.966,82.5535 334.811,82.8202 335.615,82.8202C 337.551,82.8202 338.52,81.7419 338.52,79.5852L 338.52,78.6852L 338.49,78.6852C 337.881,79.7352 336.966,80.2602 335.745,80.2602C 334.751,80.2602 333.952,79.9069 333.347,79.2002C 332.742,78.4936 332.439,77.5452 332.439,76.3552C 332.439,75.0052 332.765,73.9319 333.417,73.1352C 334.069,72.3385 334.961,71.9402 336.094,71.9402C 337.17,71.9402 337.967,72.3869 338.487,73.2802L 338.52,73.2802L 338.52,72.1002L 339.8,72.1002L 339.8,79.5052 Z M 338.52,76.4752L 338.52,75.3202C 338.52,74.7002 338.304,74.1685 337.872,73.7252C 337.44,73.2819 336.903,73.0602 336.26,73.0602C 335.466,73.0602 334.844,73.3415 334.395,73.904C 333.944,74.4665 333.719,75.2544 333.719,76.2677C 333.719,77.1394 333.935,77.836 334.367,78.3577C 334.799,78.8794 335.37,79.1402 336.08,79.1402C 336.801,79.1402 337.388,78.8906 337.841,78.3914C 338.293,77.8922 338.52,77.2535 338.52,76.4752 Z "/>
		<path fill="#FFFFFF" fill-opacity="1" stroke-linejoin="round" d="M 342.992,70.0202C 342.772,70.0202 342.585,69.9452 342.431,69.7952C 342.276,69.6452 342.199,69.4552 342.199,69.2252C 342.199,68.9936 342.276,68.8014 342.431,68.649C 342.585,68.4964 342.772,68.4202 342.992,68.4202C 343.217,68.4202 343.408,68.4964 343.564,68.649C 343.721,68.8014 343.8,68.9936 343.8,69.2252C 343.8,69.4452 343.721,69.6327 343.564,69.7877C 343.408,69.9427 343.217,70.0202 342.992,70.0202 Z M 343.639,80.1002L 342.359,80.1002L 342.359,72.1002L 343.639,72.1002L 343.639,80.1002 Z "/>
		<path fill="#FFFFFF" fill-opacity="1" stroke-linejoin="round" d="M 352.919,80.1002L 351.639,80.1002L 351.639,75.5827C 351.639,73.901 351.007,73.0602 349.742,73.0602C 349.089,73.0602 348.548,73.2985 348.121,73.7752C 347.693,74.2519 347.479,74.8543 347.479,75.5827L 347.479,80.1002L 346.199,80.1002L 346.199,72.1002L 347.479,72.1002L 347.479,73.4977L 347.512,73.4977C 348.125,72.4594 349.013,71.9402 350.174,71.9402C 351.063,71.9402 351.742,72.2218 352.213,72.7852C 352.684,73.3485 352.919,74.1619 352.919,75.2252L 352.919,80.1002 Z "/>
		<path fill="#FFFFFF" fill-opacity="1" stroke-linejoin="round" d="M 362.039,70.0202L 358.839,70.0202L 358.839,80.1002L 357.559,80.1002L 357.559,70.0202L 354.359,70.0202L 354.359,68.9002L 362.039,68.9002L 362.039,70.0202 Z "/>
		<path fill="#FFFFFF" fill-opacity="1" stroke-linejoin="round" d="M 365.432,80.2602C 364.255,80.2602 363.316,79.8889 362.613,79.1464C 361.911,78.404 361.56,77.4193 361.56,76.1927C 361.56,74.8577 361.925,73.8152 362.656,73.0652C 363.387,72.3152 364.375,71.9402 365.62,71.9402C 366.806,71.9402 367.733,72.3048 368.399,73.034C 369.066,73.7631 369.399,74.7752 369.399,76.0702C 369.399,77.3368 369.041,78.3518 368.322,79.1152C 367.604,79.8785 366.64,80.2602 365.432,80.2602 Z M 365.527,73.0602C 364.699,73.0602 364.044,73.334 363.562,73.8814C 363.081,74.4289 362.84,75.1835 362.84,76.1452C 362.84,77.0719 363.083,77.8027 363.571,78.3377C 364.058,78.8727 364.71,79.1402 365.527,79.1402C 366.36,79.1402 367.001,78.8781 367.448,78.3539C 367.896,77.8297 368.12,77.0835 368.12,76.1152C 368.12,75.1369 367.896,74.3831 367.448,73.8539C 367.001,73.3247 366.36,73.0602 365.527,73.0602 Z "/>
		<path fill="#FFFFFF" fill-opacity="1" stroke-linejoin="round" d="M 378.359,80.1002L 377.08,80.1002L 377.08,78.6702L 377.05,78.6702C 376.456,79.7302 375.541,80.2602 374.304,80.2602C 373.301,80.2602 372.5,79.9043 371.899,79.1927C 371.3,78.481 371,77.5127 371,76.2877C 371,74.9727 371.332,73.9193 371.997,73.1277C 372.662,72.336 373.548,71.9402 374.654,71.9402C 375.751,71.9402 376.549,72.3869 377.047,73.2802L 377.08,73.2802L 377.08,68.2602L 378.359,68.2602L 378.359,80.1002 Z M 377.08,76.4752L 377.08,75.3202C 377.08,74.6902 376.865,74.156 376.436,73.7177C 376.007,73.2793 375.463,73.0602 374.804,73.0602C 374.021,73.0602 373.404,73.3402 372.955,73.9002C 372.504,74.4602 372.279,75.2343 372.279,76.2227C 372.279,77.1244 372.495,77.836 372.927,78.3577C 373.358,78.8794 373.938,79.1402 374.665,79.1402C 375.381,79.1402 375.963,78.8881 376.41,78.3839C 376.856,77.8798 377.08,77.2436 377.08,76.4752 Z "/>
		<path fill="#FFFFFF" fill-opacity="1" stroke-linejoin="round" d="M 386.679,80.1002L 385.399,80.1002L 385.399,78.7802L 385.367,78.7802C 384.802,79.7669 383.969,80.2602 382.867,80.2602C 382.057,80.2602 381.423,80.0485 380.966,79.6252C 380.508,79.2019 380.28,78.6394 380.28,77.9377C 380.28,76.436 381.174,75.5627 382.962,75.3177L 385.399,74.9802C 385.399,73.7002 384.842,73.0602 383.727,73.0602C 382.749,73.0602 381.866,73.3802 381.08,74.0202L 381.08,72.6977C 381.875,72.1927 382.791,71.9402 383.827,71.9402C 385.729,71.9402 386.679,72.9319 386.679,74.9152L 386.679,80.1002 Z M 385.399,75.9402L 383.412,76.2102C 382.801,76.2935 382.339,76.4423 382.027,76.6564C 381.715,76.8706 381.56,77.2494 381.56,77.7927C 381.56,78.1894 381.703,78.5131 381.991,78.7639C 382.278,79.0148 382.661,79.1402 383.137,79.1402C 383.792,79.1402 384.333,78.9143 384.76,78.4627C 385.186,78.011 385.399,77.4394 385.399,76.7477L 385.399,75.9402 Z "/>
		<path fill="#FFFFFF" fill-opacity="1" stroke-linejoin="round" d="M 395.479,72.1002L 391.817,81.3952C 391.172,83.0918 390.266,83.9402 389.099,83.9402C 388.773,83.9402 388.5,83.9052 388.279,83.8352L 388.279,82.6602C 388.55,82.7669 388.797,82.8202 389.022,82.8202C 389.654,82.8202 390.127,82.4277 390.442,81.6427L 391.069,80.1002L 387.959,72.1002L 389.382,72.1002L 391.529,78.2702C 391.554,78.3485 391.609,78.5518 391.692,78.8802L 391.739,78.8802C 391.764,78.7552 391.816,78.5569 391.895,78.2852L 394.149,72.1002L 395.479,72.1002 Z "/>
		<path fill="#FFFFFF" fill-opacity="1" stroke-linejoin="round" d="M 396.352,80.2602C 396.11,80.2602 395.904,80.1739 395.734,80.0014C 395.564,79.8289 395.479,79.6235 395.479,79.3852C 395.479,79.1452 395.564,78.9377 395.734,78.7627C 395.904,78.5877 396.11,78.5002 396.352,78.5002C 396.599,78.5002 396.808,78.5877 396.98,78.7627C 397.153,78.9377 397.239,79.1452 397.239,79.3852C 397.239,79.6235 397.153,79.8289 396.98,80.0014C 396.808,80.1739 396.599,80.2602 396.352,80.2602 Z "/>
		<rect x="404.386" y="65.9135" fill="#FFFFFF" fill-opacity="1" stroke-linejoin="round" width="2.24023" height="18.6666"/>
	</g>
</svg>
