<?xml version="1.0" encoding="utf-8"?>
<!DOCTYPE svg PUBLIC "-//W3C//DTD SVG 1.1//EN" "http://www.w3.org/Graphics/SVG/1.1/DTD/svg11.dtd">
<svg xmlns="http://www.w3.org/2000/svg" xmlns:xlink="http://www.w3.org/1999/xlink" version="1.1" baseProfile="full" width="250.798" height="101.042" viewBox="0 0 250.80 101.04" enable-background="new 0 0 250.80 101.04" xml:space="preserve">
	<rect x="100.298" y="0.541702" fill="#FFFFFF" fill-opacity="1" stroke-linejoin="round" stroke="#549AFC" stroke-opacity="1" width="150" height="100"/>
	<g>
		<path fill="#549AFC" fill-opacity="1" stroke-linejoin="round" d="M 122.991,74.2816L 122.991,83.6416L 120.218,83.6416L 120.218,59.375L 126.913,59.375C 129.521,59.375 131.541,59.9988 132.975,61.2464C 134.408,62.4941 135.125,64.2536 135.125,66.525C 135.125,68.7999 134.323,70.6615 132.72,72.1095C 131.116,73.5576 128.952,74.2816 126.225,74.2816L 122.991,74.2816 Z M 122.991,61.8016L 122.991,71.855L 125.965,71.855C 127.93,71.855 129.427,71.4018 130.458,70.4954C 131.489,69.589 132.005,68.3088 132.005,66.655C 132.005,63.4194 130.111,61.8016 126.323,61.8016L 122.991,61.8016 Z "/>
		<path fill="#549AFC" fill-opacity="1" stroke-linejoin="round" d="M 150.898,83.6416L 148.125,83.6416L 148.125,80.7816L 148.054,80.7816C 146.83,82.9194 145.025,83.9883 142.638,83.9883C 140.883,83.9883 139.51,83.5297 138.518,82.6125C 137.527,81.6952 137.031,80.4765 137.031,78.9562C 137.031,75.7026 138.969,73.8104 142.844,73.2795L 148.125,72.5483C 148.125,69.775 146.917,68.3883 144.501,68.3883C 142.381,68.3883 140.469,69.0816 138.765,70.4683L 138.765,67.6029C 140.487,66.5087 142.472,65.9616 144.718,65.9616C 148.838,65.9616 150.898,68.1102 150.898,72.4075L 150.898,83.6416 Z M 148.125,74.6283L 143.819,75.2133C 142.493,75.3938 141.493,75.7161 140.818,76.1802C 140.143,76.6442 139.805,77.4648 139.805,78.642C 139.805,79.5015 140.116,80.2029 140.739,80.7464C 141.362,81.2899 142.19,81.5616 143.223,81.5616C 144.642,81.5616 145.814,81.0723 146.738,80.0937C 147.663,79.1151 148.125,77.8765 148.125,76.3779L 148.125,74.6283 Z "/>
		<path fill="#549AFC" fill-opacity="1" stroke-linejoin="round" d="M 165.111,69.0816C 164.627,68.6194 163.931,68.3883 163.021,68.3883C 161.84,68.3883 160.853,68.9534 160.061,70.0837C 159.268,71.214 158.871,72.7541 158.871,74.7041L 158.871,83.6416L 156.098,83.6416L 156.098,66.3083L 158.871,66.3083L 158.871,69.7045L 158.937,69.7045C 159.33,68.5273 159.932,67.6092 160.743,66.9501C 161.554,66.2911 162.459,65.9616 163.459,65.9616C 164.178,65.9616 164.729,66.0411 165.111,66.2L 165.111,69.0816 Z "/>
		<path fill="#549AFC" fill-opacity="1" stroke-linejoin="round" d="M 177.418,83.4087C 176.75,83.7951 175.871,83.9883 174.781,83.9883C 171.686,83.9883 170.138,82.3055 170.138,78.94L 170.138,68.7349L 167.019,68.7349L 167.019,66.3083L 170.138,66.3083L 170.138,62.0183L 172.912,61.1083L 172.912,66.3083L 177.418,66.3083L 177.418,68.7349L 172.912,68.7349L 172.912,78.3712C 172.912,79.5195 173.116,80.3384 173.524,80.8277C 173.932,81.317 174.607,81.5616 175.55,81.5616C 176.272,81.5616 176.895,81.3305 177.418,80.8683L 177.418,83.4087 Z "/>
		<path fill="#549AFC" fill-opacity="1" stroke-linejoin="round" d="M 195.445,83.6416L 192.671,83.6416L 192.671,73.8537C 192.671,70.2101 191.301,68.3883 188.561,68.3883C 187.145,68.3883 185.974,68.9047 185.048,69.9375C 184.121,70.9702 183.658,72.2757 183.658,73.8537L 183.658,83.6416L 180.885,83.6416L 180.885,66.3083L 183.658,66.3083L 183.658,69.3362L 183.729,69.3362C 185.058,67.0865 186.98,65.9616 189.497,65.9616C 191.422,65.9616 192.895,66.5719 193.915,67.7925C 194.935,69.013 195.445,70.7752 195.445,73.0791L 195.445,83.6416 Z "/>
		<path fill="#549AFC" fill-opacity="1" stroke-linejoin="round" d="M 214.512,75.6683L 202.378,75.6683C 202.425,77.5497 202.947,79.0022 203.944,80.026C 204.94,81.0497 206.313,81.5616 208.06,81.5616C 210.025,81.5616 211.828,80.9838 213.472,79.8283L 213.472,82.3687C 211.955,83.4484 209.947,83.9883 207.448,83.9883C 205.007,83.9883 203.089,83.2065 201.696,81.6429C 200.302,80.0793 199.605,77.8783 199.605,75.04C 199.605,72.3605 200.359,70.1776 201.866,68.4912C 203.374,66.8048 205.247,65.9616 207.486,65.9616C 209.721,65.9616 211.451,66.6902 212.675,68.1473C 213.899,69.6043 214.512,71.6293 214.512,74.222L 214.512,75.6683 Z M 211.738,73.2416C 211.728,71.7105 211.343,70.5188 210.584,69.6666C 209.826,68.8144 208.772,68.3883 207.421,68.3883C 206.117,68.3883 205.011,68.8361 204.101,69.7316C 203.191,70.6272 202.629,71.7972 202.416,73.2416L 211.738,73.2416 Z "/>
		<path fill="#549AFC" fill-opacity="1" stroke-linejoin="round" d="M 227.685,69.0816C 227.201,68.6194 226.504,68.3883 225.594,68.3883C 224.413,68.3883 223.427,68.9534 222.634,70.0837C 221.841,71.214 221.445,72.7541 221.445,74.7041L 221.445,83.6416L 218.672,83.6416L 218.672,66.3083L 221.445,66.3083L 221.445,69.7045L 221.51,69.7045C 221.904,68.5273 222.506,67.6092 223.316,66.9501C 224.127,66.2911 225.032,65.9616 226.033,65.9616C 226.751,65.9616 227.302,66.0411 227.685,66.2L 227.685,69.0816 Z "/>
	</g>
	<g>
		<rect x="1.02271" y="0.021225" fill="#549AFC" fill-opacity="1" stroke-width="0.2" stroke-linejoin="round" width="98.9773" height="99.9788"/>
		<path fill="#F8F8F8" fill-opacity="1" stroke-width="0.2" stroke-linejoin="round" d="M 35.9336,51.4482C 37.5706,51.4482 38.8977,52.713 38.8977,54.2731C 38.8977,55.8332 37.5706,57.098 35.9336,57.098C 34.2961,57.098 32.969,55.8332 32.969,54.2731C 32.969,52.713 34.2961,51.4482 35.9336,51.4482 Z "/>
		<path fill="#F8F8F8" fill-opacity="1" stroke-width="0.2" stroke-linejoin="round" d="M 26.8169,51.3917C 28.4541,51.3917 29.7813,52.6564 29.7813,54.2166C 29.7813,55.7767 28.4541,57.0414 26.8169,57.0414C 25.1797,57.0414 23.8525,55.7767 23.8525,54.2166C 23.8525,52.6564 25.1797,51.3917 26.8169,51.3917 Z "/>
		<path fill="#F8F8F8" fill-opacity="1" stroke-width="0.2" stroke-linejoin="round" d="M 31.2913,59.8663C 32.9282,59.8663 34.2554,61.131 34.2554,62.6911C 34.2554,64.2513 32.9282,65.516 31.2913,65.516C 29.6538,65.516 28.3267,64.2513 28.3267,62.6911C 28.3267,61.131 29.6538,59.8663 31.2913,59.8663 Z "/>
		<path fill="#F8F8F8" fill-opacity="1" stroke-width="0.2" stroke-linejoin="round" d="M 41.0227,59.9792C 42.6597,59.9792 43.9868,61.244 43.9868,62.8041C 43.9868,64.3643 42.6597,65.629 41.0227,65.629C 39.3853,65.629 38.0581,64.3643 38.0581,62.8041C 38.0581,61.244 39.3853,59.9792 41.0227,59.9792 Z "/>
		<path fill="#F8F8F8" fill-opacity="1" stroke-width="0.2" stroke-linejoin="round" d="M 21.5598,59.8663C 23.1968,59.8663 24.5239,61.131 24.5239,62.6911C 24.5239,64.2513 23.1968,65.516 21.5598,65.516C 19.9224,65.516 18.5952,64.2513 18.5952,62.6911C 18.5952,61.131 19.9224,59.8663 21.5598,59.8663 Z "/>
		<path fill="#F8F8F8" fill-opacity="1" stroke-width="0.2" stroke-linejoin="round" d="M 26.5933,68.5668C 28.2305,68.5668 29.5576,69.8316 29.5576,71.3917C 29.5576,72.9519 28.2305,74.2166 26.5933,74.2166C 24.9561,74.2166 23.6289,72.9519 23.6289,71.3917C 23.6289,69.8316 24.9561,68.5668 26.5933,68.5668 Z "/>
		<path fill="#F8F8F8" fill-opacity="1" stroke-width="0.2" stroke-linejoin="round" d="M 36.1011,68.5668C 37.7383,68.5668 39.0654,69.8316 39.0654,71.3917C 39.0654,72.9519 37.7383,74.2166 36.1011,74.2166C 34.4639,74.2166 33.1367,72.9519 33.1367,71.3917C 33.1367,69.8316 34.4639,68.5668 36.1011,68.5668 Z "/>
		<path fill="#FFFFFF" fill-opacity="0.976471" stroke-width="0.2" stroke-linejoin="round" d="M 47.2014,66.5088L 47.1958,72.0865L 73.6172,72.0777C 73.6172,72.0777 84.7856,70.0651 84.979,58.3294C 85.0825,52.0495 79.6099,47.7433 79.3303,47.2348C 79.0508,46.7263 80.1282,39.5452 73.9631,34.7856C 66.6086,29.1077 59.9092,32.4396 59.3499,32.2701C 58.7905,32.1006 54.395,25.7037 45.8589,25.9721C 30.083,26.4681 28.6262,40.6543 28.3955,41.756C 28.3274,42.0804 24.0352,43.7709 22.1631,47.6992C 21.9631,48.1185 27.8032,48.2254 29.0981,47.8687C 29.7134,47.6992 30.4307,46.2994 33.7961,45.4958C 34.0198,45.4424 31.926,36.6959 41.0283,32.7129C 51.6875,28.0487 57.3901,38.8596 57.2617,40.679C 57.2197,41.2722 61.0168,34.6994 68.6709,38.0519C 75.6323,41.101 73.8706,50.3242 72.8655,50.3824C 71.9912,50.433 79.7808,52.1703 79.3672,58.857C 78.9478,65.6366 72.6558,66.6536 71.8833,66.5693C 70.8687,66.4585 47.2573,66.5088 47.2014,66.5088 Z "/>
		<rect x="0" y="1.52588e-005" fill="#549AFC" fill-opacity="0" stroke-width="0.2" stroke-linejoin="round" width="98.9771" height="99.9788"/>
	</g>
</svg>
